HIERARCHY
ROOT Hips
{
    OFFSET   0.000000   0.000000   0.000000
    CHANNELS 6 Xposition Yposition Zposition Zrotation Xrotation Yrotation
    JOINT Chest
    {
        OFFSET   0.000000   8.007230   0.000000
        CHANNELS 3 Zrotation Xrotation Yrotation
        JOINT Chest2
        {
            OFFSET   0.000000  22.077100   0.000000
            CHANNELS 3 Zrotation Xrotation Yrotation
            JOINT Neck
            {
                OFFSET   0.000000  23.254700   0.000000
                CHANNELS 3 Zrotation Xrotation Yrotation
                JOINT Head
                {
                    OFFSET   0.000010  14.370000   1.956610
                    CHANNELS 3 Zrotation Xrotation Yrotation
                    End Site
                    {
                        OFFSET   0.000000  19.566000   0.000000
                    }
                }
            }
            JOINT LeftCollar
            {
                OFFSET   3.911900  19.017000  -0.467063
                CHANNELS 3 Zrotation Xrotation Yrotation
                JOINT LeftShoulder
                {
                    OFFSET  10.383700   0.000000   0.000000
                    CHANNELS 3 Zrotation Xrotation Yrotation
                    JOINT LeftElbow
                    {
                        OFFSET  26.662100   0.001671   0.000522
                        CHANNELS 3 Zrotation Xrotation Yrotation
                        JOINT LeftWrist
                        {
                            OFFSET  28.869000   0.000037  -0.000114
                            CHANNELS 3 Zrotation Xrotation Yrotation
                            JOINT LeftFinger0
                            {
                                OFFSET   2.044650  -2.323450   3.252850
                                CHANNELS 3 Zrotation Xrotation Yrotation
                                JOINT LeftFinger01
                                {
                                    OFFSET   3.088140   0.000000   0.000000
                                    CHANNELS 3 Zrotation Xrotation Yrotation
                                    JOINT LeftFinger02
                                    {
                                        OFFSET   2.639460   0.000000   0.000000
                                        CHANNELS 3 Zrotation Xrotation Yrotation
                                        End Site
                                        {
                                            OFFSET   2.582190   0.000000   0.000000
                                        }
                                    }
                                }
                            }
                            JOINT LeftFinger1
                            {
                                OFFSET   8.364480   0.000000   3.252850
                                CHANNELS 3 Zrotation Xrotation Yrotation
                                JOINT LeftFinger11
                                {
                                    OFFSET   4.646930   0.000000   0.000000
                                    CHANNELS 3 Zrotation Xrotation Yrotation
                                    JOINT LeftFinger12
                                    {
                                        OFFSET   2.323470   0.000000   0.000000
                                        CHANNELS 3 Zrotation Xrotation Yrotation
                                        End Site
                                        {
                                            OFFSET   2.273050   0.000000   0.000000
                                        }
                                    }
                                }
                            }
                            JOINT LeftFinger2
                            {
                                OFFSET   8.364490   0.000016   1.078090
                                CHANNELS 3 Zrotation Xrotation Yrotation
                                JOINT LeftFinger21
                                {
                                    OFFSET   5.111620   0.000000   0.000000
                                    CHANNELS 3 Zrotation Xrotation Yrotation
                                    JOINT LeftFinger22
                                    {
                                        OFFSET   2.788150   0.000013   0.000000
                                        CHANNELS 3 Zrotation Xrotation Yrotation
                                        End Site
                                        {
                                            OFFSET   2.727660   0.000000   0.000000
                                        }
                                    }
                                }
                            }
                            JOINT LeftFinger3
                            {
                                OFFSET   7.899780   0.000016  -1.078090
                                CHANNELS 3 Zrotation Xrotation Yrotation
                                JOINT LeftFinger31
                                {
                                    OFFSET   4.646930   0.000000   0.000000
                                    CHANNELS 3 Zrotation Xrotation Yrotation
                                    JOINT LeftFinger32
                                    {
                                        OFFSET   2.323470   0.000000   0.000000
                                        CHANNELS 3 Zrotation Xrotation Yrotation
                                        End Site
                                        {
                                            OFFSET   2.273050   0.000000   0.000000
                                        }
                                    }
                                }
                            }
                            JOINT LeftFinger4
                            {
                                OFFSET   7.435080   0.000000  -3.252850
                                CHANNELS 3 Zrotation Xrotation Yrotation
                                JOINT LeftFinger41
                                {
                                    OFFSET   3.717550   0.000000   0.000000
                                    CHANNELS 3 Zrotation Xrotation Yrotation
                                    JOINT LeftFinger42
                                    {
                                        OFFSET   1.858760   0.000000   0.000000
                                        CHANNELS 3 Zrotation Xrotation Yrotation
                                        End Site
                                        {
                                            OFFSET   1.818440   0.000000   0.000000
                                        }
                                    }
                                }
                            }
                        }
                    }
                }
            }
            JOINT RightCollar
            {
                OFFSET  -3.911900  19.017000  -0.467064
                CHANNELS 3 Zrotation Xrotation Yrotation
                JOINT RightShoulder
                {
                    OFFSET -10.383700   0.000000   0.000000
                    CHANNELS 3 Zrotation Xrotation Yrotation
                    JOINT RightElbow
                    {
                        OFFSET -26.662100   0.001633   0.000260
                        CHANNELS 3 Zrotation Xrotation Yrotation
                        JOINT RightWrist
                        {
                            OFFSET -28.869000  -0.000045  -0.000080
                            CHANNELS 3 Zrotation Xrotation Yrotation
                            JOINT RightFinger0
                            {
                                OFFSET  -2.044660  -2.323490   3.252850
                                CHANNELS 3 Zrotation Xrotation Yrotation
                                JOINT RightFinger01
                                {
                                    OFFSET  -3.088140   0.000000   0.000000
                                    CHANNELS 3 Zrotation Xrotation Yrotation
                                    JOINT RightFinger02
                                    {
                                        OFFSET  -2.639450   0.000000   0.000000
                                        CHANNELS 3 Zrotation Xrotation Yrotation
                                        End Site
                                        {
                                            OFFSET  -2.582190   0.000000   0.000000
                                        }
                                    }
                                }
                            }
                            JOINT RightFinger1
                            {
                                OFFSET  -8.364480   0.000000   3.252850
                                CHANNELS 3 Zrotation Xrotation Yrotation
                                JOINT RightFinger11
                                {
                                    OFFSET  -4.646920   0.000000   0.000000
                                    CHANNELS 3 Zrotation Xrotation Yrotation
                                    JOINT RightFinger12
                                    {
                                        OFFSET  -2.323470   0.000000   0.000000
                                        CHANNELS 3 Zrotation Xrotation Yrotation
                                        End Site
                                        {
                                            OFFSET  -2.273050   0.000000   0.000000
                                        }
                                    }
                                }
                            }
                            JOINT RightFinger2
                            {
                                OFFSET  -8.364480   0.000000   1.078090
                                CHANNELS 3 Zrotation Xrotation Yrotation
                                JOINT RightFinger21
                                {
                                    OFFSET  -5.111610   0.000000   0.000000
                                    CHANNELS 3 Zrotation Xrotation Yrotation
                                    JOINT RightFinger22
                                    {
                                        OFFSET  -2.788160   0.000000   0.000000
                                        CHANNELS 3 Zrotation Xrotation Yrotation
                                        End Site
                                        {
                                            OFFSET  -2.727660   0.000000   0.000000
                                        }
                                    }
                                }
                            }
                            JOINT RightFinger3
                            {
                                OFFSET  -7.899780   0.000000  -1.078090
                                CHANNELS 3 Zrotation Xrotation Yrotation
                                JOINT RightFinger31
                                {
                                    OFFSET  -4.646930   0.000000   0.000000
                                    CHANNELS 3 Zrotation Xrotation Yrotation
                                    JOINT RightFinger32
                                    {
                                        OFFSET  -2.323470   0.000000   0.000000
                                        CHANNELS 3 Zrotation Xrotation Yrotation
                                        End Site
                                        {
                                            OFFSET  -2.273050   0.000000   0.000000
                                        }
                                    }
                                }
                            }
                            JOINT RightFinger4
                            {
                                OFFSET  -7.435090   0.000000  -3.252850
                                CHANNELS 3 Zrotation Xrotation Yrotation
                                JOINT RightFinger41
                                {
                                    OFFSET  -3.717550   0.000000   0.000000
                                    CHANNELS 3 Zrotation Xrotation Yrotation
                                    JOINT RightFinger42
                                    {
                                        OFFSET  -1.858760   0.000000   0.000000
                                        CHANNELS 3 Zrotation Xrotation Yrotation
                                        End Site
                                        {
                                            OFFSET  -1.818440   0.000000   0.000000
                                        }
                                    }
                                }
                            }
                        }
                    }
                }
            }
        }
    }
    JOINT LeftHip
    {
        OFFSET   9.782990   0.000000   0.000000
        CHANNELS 3 Zrotation Xrotation Yrotation
        JOINT LeftKnee
        {
            OFFSET  -0.000063 -41.789100   0.001657
            CHANNELS 3 Zrotation Xrotation Yrotation
            JOINT LeftAnkle
            {
                OFFSET   0.000078 -41.133200  -0.000113
                CHANNELS 3 Zrotation Xrotation Yrotation
                JOINT LeftToe
                {
                    OFFSET   0.000000  -6.358970  14.674500
                    CHANNELS 3 Zrotation Xrotation Yrotation
                    End Site
                    {
                        OFFSET   0.000000   0.000000   3.913200
                    }
                }
            }
        }
    }
    JOINT RightHip
    {
        OFFSET  -9.782990   0.000000   0.000000
        CHANNELS 3 Zrotation Xrotation Yrotation
        JOINT RightKnee
        {
            OFFSET   0.000053 -41.789200   0.000277
            CHANNELS 3 Zrotation Xrotation Yrotation
            JOINT RightAnkle
            {
                OFFSET   0.000030 -41.133200  -0.000150
                CHANNELS 3 Zrotation Xrotation Yrotation
                JOINT RightToe
                {
                    OFFSET   0.000000  -6.358960  14.674500
                    CHANNELS 3 Zrotation Xrotation Yrotation
                    End Site
                    {
                        OFFSET   0.000000   0.000000   3.913200
                    }
                }
            }
        }
    }
}
MOTION
Frames: 6
Frame Time:   0.016667
  5.722920  89.112100  -4.253310 -10.232500 -21.609000 -15.907500  -1.230700  18.112400   4.343540  -4.343520  36.055800   9.926050   2.709920  -6.320870   0.298557   4.605280 -12.730300   7.068420  -6.851330 -16.644200  -3.861360 -42.221200  12.063600 -75.592600  16.079100 -22.286400 -31.008400   5.818010 -67.632800  -5.284450  47.925400  31.668500 -65.595400  -8.805460   0.000644   0.000150   0.597257   0.000213   0.000787 -11.626600  -2.477990  11.867200  -9.723320  -0.001212  -0.001527  -6.806330   0.000876  -0.003832 -13.501500  -2.899370  11.896400 -13.803500   0.002602  -0.001386  -9.193130   0.002413  -0.002232  -6.779060  -1.466840  12.152700  -6.935150   0.000410  -0.009857  -4.618800   0.001780  -0.003007  -9.251610  -1.997480  12.077900 -14.194300   0.002443  -0.001450  -9.453420   0.002360  -0.002037  10.588900 -12.424500  16.676100  47.223400  -2.158960  68.291000 -28.044600 -18.396800  23.249300  20.294300 -77.195100  33.847900 -57.950700  38.334900  71.854600 -15.532300   0.000000   0.000000 -12.766200  -0.001626   0.001075  14.912200  -0.173065  -0.651905  12.201400   0.005580   0.000000   8.540970   0.007037   0.002245  13.555700  -0.157557  -0.655719  13.556200   0.002858   0.000000   9.028420   0.008459   0.001882   8.515540  -0.099428  -0.667079   8.515650  -0.002757   0.000058   5.671440   0.000072   0.002127  14.507700  -0.168478  -0.653035  21.762300   0.000000   0.000173  14.493700   0.001166   0.004741   0.234505  25.655300  10.443100   0.165687   0.038130  10.224700   1.721650  -3.706390   7.837900   0.000000   0.000000  -0.000000   3.182330  15.708900  -0.504275  -5.261820  13.195900  -2.306130   3.855720  -4.700410   5.874620   0.000000   0.000000   0.000000
  5.714630  89.112500  -4.220330 -10.224000 -21.596300 -15.898900  -1.212790  18.067300   4.320670  -4.288810  35.968700   9.863400   2.689880  -6.307450   0.295885   4.573450 -12.704500   7.037740  -6.882120 -16.602500  -3.823460 -42.237600  12.105300 -75.669700  16.033400 -22.405000 -31.125800   5.449830 -67.647400  -5.627650  48.026000  31.717800 -65.596600  -8.799160   0.000624   0.000191   0.600412   0.000193   0.000600 -11.633800  -2.479870  11.867000  -9.729600  -0.001324  -0.001661  -6.810720   0.000780  -0.003780 -13.457000  -2.892050  11.906200 -13.758800   0.002812  -0.001478  -9.163360   0.002647  -0.002396  -6.766540  -1.465190  12.161200  -6.922780   0.000426  -0.010584  -4.610570   0.001630  -0.003783  -9.260140  -2.000660  12.085700 -14.208100   0.002540  -0.001579  -9.462630   0.002510  -0.002378  10.616200 -12.435200  16.675400  47.170300  -2.128190  68.292100 -28.038100 -18.406900  23.162600  21.473300 -77.017900  34.884800 -58.108000  38.360200  71.809900 -15.570000  -0.000432  -0.000130 -12.785100  -0.001645   0.001014  15.087500  -0.157861  -0.583550  12.345400   0.005635   0.000922   8.641760   0.007190   0.002372  13.723500  -0.143465  -0.587843  13.724700   0.002912   0.000614   9.140660   0.008627   0.001992   8.699530  -0.090909  -0.596857   8.700130  -0.003064   0.000828   5.794290   0.000016   0.002304  14.635500  -0.161958  -0.621011  21.961400  -0.000176   0.002556  14.626300   0.001117   0.004758   0.228008  25.734600  10.421900   0.155060  -0.059494  10.221800   1.725600  -3.713410   7.852270   0.000000   0.000000   0.000000   3.183280  15.710400  -0.507298  -5.260330  13.195400  -2.291860   3.903370  -4.749410   5.846900   0.000000   0.000000   0.000000
  5.700750  89.112600  -4.189560 -10.214100 -21.574800 -15.893000  -1.196690  18.013900   4.301650  -4.238330  35.864500   9.808780   2.678730  -6.285200   0.293391   4.550420 -12.660400   7.005860  -6.903320 -16.547400  -3.762880 -42.286300  12.158900 -75.757400  16.011000 -22.483700 -31.226300   5.022780 -67.660100  -6.005230  48.226400  31.859100 -65.617900  -8.783510   0.000592   0.000219   0.608249   0.000173   0.000407 -11.641100  -2.481750  11.866700  -9.735880  -0.001427  -0.002049  -6.815120   0.000693  -0.003755 -13.412600  -2.884730  11.916100 -13.714100   0.003059  -0.001764  -9.133590   0.002909  -0.002666  -6.754030  -1.463530  12.169700  -6.910410   0.000467  -0.011303  -4.602340   0.001495  -0.004643  -9.268650  -2.003950  12.093400 -14.222000   0.002668  -0.001988  -9.471840   0.002687  -0.002803  10.643300 -12.445300  16.674700  46.996300  -2.049290  68.288800 -28.022400 -18.411200  23.067800  22.693900 -76.821300  35.944500 -58.323600  38.430000  71.734900 -15.607700  -0.003002  -0.000765 -12.803900  -0.001779   0.000985  15.268500  -0.130709  -0.470282  12.495900   0.005671   0.004079   8.747120   0.007334   0.002756  13.878000  -0.118752  -0.474789  13.882200   0.002986   0.003626   9.245570   0.008751   0.002324   8.887240  -0.077146  -0.482740   8.891280  -0.003328   0.004257   5.921580   0.000000   0.002836  14.768200  -0.143716  -0.528638  22.164700  -0.000263   0.007325  14.761700   0.001110   0.004819   0.219557  25.813800  10.402400   0.144426  -0.157119  10.219800   1.729510  -3.719420   7.867990   0.000000   0.000000   0.000000   3.185860  15.710600  -0.513727  -5.265660  13.195000  -2.265640   3.946550  -4.803870   5.812080  -0.000000   0.000000   0.000000
  5.681580  89.109800  -4.159380 -10.198400 -21.541300 -15.881100  -1.183430  17.944300   4.290400  -4.194680  35.727500   9.770310   2.676860  -6.243810   0.290731   4.542370 -12.577300   6.957930  -6.924820 -16.477200  -3.728090 -42.430700  12.249800 -75.829300  16.051800 -22.402700 -31.284300   4.624370 -67.557500  -6.303560  48.645600  32.177000 -65.785600  -8.765810   0.000526   0.000206   0.617096   0.000147   0.000205 -11.779300  -2.511540  11.839000  -9.852680  -0.001526  -0.006023  -6.896880   0.000622  -0.005111 -13.475600  -2.895520  11.897800 -13.772600   0.003345  -0.005553  -9.172550   0.003211  -0.003005  -6.773030  -1.466580  12.155200  -6.929720   0.000531  -0.012065  -4.615200   0.001370  -0.005583  -9.326590  -2.015750  12.077300 -14.311500   0.002823  -0.005613  -9.531430   0.002887  -0.003237  10.555500 -12.460600  16.503300  46.938800  -1.852570  68.336100 -28.020600 -18.390300  22.964300  23.150000 -76.566600  36.276500 -58.627200  38.592000  71.833700 -15.602000  -0.014843  -0.004211 -12.801000  -0.008408   0.006230  15.495100  -0.102293  -0.321952  12.688900   0.005688   0.011715   8.882210   0.007498   0.007174  14.012000  -0.092953  -0.327182  14.018400   0.003100   0.012371   9.336270   0.008829   0.007036   9.045530  -0.065159  -0.374403   9.063750  -0.003561   0.015991   6.036440   0.000000   0.010064  14.915900   0.013415   0.046178  22.376800   0.009163   0.015019  14.902900   0.008259   0.005260   0.218761  25.645200  10.381000   0.178090  -0.011715  10.209600   1.732660  -3.742450   7.891440   0.000000   0.000000   0.000000   3.197960  15.697900  -0.522595  -5.276690  13.191600  -2.232040   3.980980  -4.852390   5.764290  -0.000000   0.000000  -0.000000
  5.659340  89.102200  -4.124780 -10.175800 -21.491300 -15.860100  -1.170830  17.855700   4.285220  -4.151580  35.552300   9.742380   2.676040  -6.183380   0.287722   4.541290 -12.455500   6.890270  -6.921970 -16.372500  -3.676630 -42.568600  12.386900 -75.908300  16.177500 -22.258600 -31.320400   4.410950 -67.241100  -6.391130  49.244200  32.660800 -66.128800  -8.730570   0.000448   0.000192   0.634716   0.000119   0.000000 -12.229600  -2.575020  11.669300 -10.226100  -0.001617  -0.011595  -7.158270   0.000565  -0.007607 -13.784600  -2.944300  11.815300 -14.091600   0.003670  -0.010555  -9.384990   0.003549  -0.003907  -6.905290  -1.487770  12.084300  -7.064920   0.000617  -0.012720  -4.705240   0.001265  -0.006614  -9.528610  -2.046910  12.004300 -14.619100   0.003013  -0.010361  -9.736300   0.003123  -0.004200  10.273000 -12.492200  16.008600  47.168300  -1.487220  68.502300 -28.041500 -18.378200  22.843300  22.418300 -75.985900  35.434000 -59.403100  38.942000  72.231700 -15.561900  -0.031483  -0.008677 -12.780900  -0.019093   0.014575  15.928600  -0.006305   0.028399  13.051300   0.005691   0.020211   9.135880   0.007592   0.013612  14.315500  -0.007258   0.026565  14.338300   0.003175   0.023084   9.549330   0.008856   0.014762   9.423790  -0.020636   0.010036   9.451230  -0.003680   0.029428   6.294500   0.000000   0.019907  15.253200   0.215948   0.732848  22.872900   0.026103   0.021086  15.233300   0.020632   0.005643   0.210487  25.476800  10.356600   0.211798   0.133697  10.202300   1.726540  -3.771150   7.906460   0.000000   0.000000   0.000000   3.214450  15.674700  -0.531460  -5.285550  13.174000  -2.210280   3.997400  -4.892510   5.714980   0.000000   0.000000   0.000000
  5.637430  89.089000  -4.078310 -10.150400 -21.418700 -15.829200  -1.156180  17.741100   4.289730  -4.106960  35.325000   9.732620   2.676940  -6.097080   0.284305   4.544660 -12.281600   6.767630  -6.848260 -16.205400  -3.607410 -42.634200  12.646300 -75.964400  16.472000 -22.108500 -31.341500   4.461310 -66.637300  -6.173460  50.030500  33.333100 -66.731800  -8.635930   0.000411   0.000193   0.682033   0.000105  -0.000101 -13.028900  -2.673440  11.316300 -10.883200  -0.001715  -0.013386  -7.618240   0.000519  -0.008834 -14.367300  -3.037250  11.660900 -14.794000   0.003850  -0.011704  -9.852830   0.003736  -0.004911  -7.290850  -1.555840  11.947500  -7.455800   0.000669  -0.012920  -4.965560   0.001187  -0.007181  -9.911920  -2.107070  11.865300 -15.199000   0.003127  -0.011602 -10.122600   0.003267  -0.005223   9.667170 -12.443900  15.066100  47.550400  -0.827342  68.946100 -28.202600 -18.404600  22.661100  20.505100 -74.894100  33.423400 -60.719500  39.515100  72.894700 -14.695000  -0.038499  -0.010622 -12.347500  -0.023183   0.018931  16.750300   0.203547   0.754839  13.731500   0.003569   0.023272   9.612020   0.006176   0.015858  14.915400   0.162762   0.758364  15.081900  -0.001534   0.028033  10.044600   0.005096   0.021492  10.224200   0.221178   1.191600  10.245300  -0.001393   0.033561   6.823380   0.001695   0.023458  15.931100   0.324016   1.025290  23.873600   0.034078   0.021744  15.899800   0.026028   0.005480   0.212614  25.562700  10.296500   0.199244   0.001525  10.235000   1.704880  -3.802420   7.905350   0.000000   0.000000   0.000000   3.225960  15.652000  -0.534326  -5.274750  13.134400  -2.211520   3.993650  -4.914500   5.676280   0.000000   0.000000   0.000000
